<svg width="50" height="50" viewBox="0 0 348 289" fill="none" xmlns="http://www.w3.org/2000/svg">
    <rect width="348" height="289" fill="#0a192f"/>
    <path d="M81.7471 153.04C81.7471 154.798 82.9775 157.171 85.4385 160.159C87.9873 163.06 91.7666 166.663 96.7764 170.97C100.028 173.694 103.368 176.375 106.796 179.012C110.312 181.561 113.783 184.153 117.211 186.79C118.705 188.021 120.639 189.646 123.012 191.668C125.385 193.602 128.153 195.887 131.317 198.523C133.603 200.281 135.976 202.039 138.437 203.797C140.985 205.555 143.71 207.312 146.61 209.07C148.544 210.564 150.697 212.19 153.07 213.948C155.443 215.706 158.168 217.596 161.244 219.617C163.002 220.672 164.364 222.605 165.331 225.418C166.298 228.143 166.869 231.702 167.045 236.097L165.858 239.524L164.54 240.184C163.661 240.184 162.475 239.788 160.98 238.997C159.574 238.294 157.772 237.239 155.575 235.833C155.136 235.569 153.114 234.603 149.511 232.933C145.995 231.263 140.897 228.89 134.218 225.813C130.526 224.231 127.143 222.474 124.066 220.54C120.99 218.519 118.178 216.409 115.629 214.212C114.135 212.894 112.201 211.443 109.828 209.861C107.543 208.279 104.818 206.565 101.654 204.72C98.4023 202.874 95.5898 201.116 93.2168 199.446C90.8438 197.776 88.9541 196.37 87.5479 195.228C82.8018 191.36 78.9346 188.416 75.9463 186.395C72.958 184.373 70.8926 183.362 69.75 183.362C68.8711 184.593 68.3877 185.867 68.2998 187.186C67.2451 191.316 66.1025 196.546 64.8721 202.874C63.7295 209.114 62.4551 216.409 61.0488 224.759C61.0488 226.253 60.7852 227.352 60.2578 228.055C59.7305 228.846 58.9395 229.241 57.8848 229.241C54.457 229.241 51.8643 228.406 50.1064 226.736C48.3486 225.066 47.4697 222.562 47.4697 219.222C47.4697 214.739 47.7334 210.037 48.2607 205.115C48.876 200.193 49.8428 195.008 51.1611 189.559C51.6006 187.186 51.9082 185.076 52.084 183.23C52.3477 181.297 52.4795 179.539 52.4795 177.957C52.4795 173.914 50.7217 170.442 47.2061 167.542C43.7783 164.642 42.0645 162.576 42.0645 161.346C42.0645 159.412 42.3281 157.742 42.8555 156.336C43.4707 154.842 44.3496 153.655 45.4922 152.776C48.3926 150.931 51.0732 149.173 53.5342 147.503C54.1494 147.151 54.5449 146.58 54.7207 145.789C54.9844 144.91 55.1162 143.724 55.1162 142.229C55.1162 141.351 55.1162 140.428 55.1162 139.461C55.1162 138.406 55.1162 137.439 55.1162 136.561C55.3799 128.738 55.5996 120.608 55.7754 112.171C55.7754 111.556 55.7754 110.589 55.7754 109.271C55.7754 107.952 55.6875 106.238 55.5117 104.129C55.3359 102.547 55.292 101.097 55.3799 99.7783C55.4678 98.3721 55.5117 97.0977 55.5117 95.9551C54.9844 94.1973 54.501 92.7031 54.0615 91.4727C53.71 90.1543 53.5342 88.9238 53.5342 87.7812C53.5342 86.7266 53.6221 85.1006 53.7979 82.9033C53.9736 80.6182 54.0615 78.9922 54.0615 78.0254C54.0615 76.7949 53.9297 75.0811 53.666 72.8838C53.4902 70.6865 53.4023 69.0166 53.4023 67.874C53.4023 64.71 54.1055 61.6777 55.5117 58.7773C57.0059 55.877 59.2471 53.0205 62.2354 50.208C65.1357 47.7471 68.0801 45.9014 71.0684 44.6709C74.1445 43.3525 77.2646 42.6934 80.4287 42.6934C81.9229 42.6934 84.1201 42.8252 87.0205 43.0889C90.0088 43.2646 92.3379 43.3525 94.0078 43.3525C95.1504 43.3525 98.2705 44.3193 103.368 46.2529C105.39 46.4287 107.191 46.6924 108.773 47.0439C110.355 47.3076 111.63 47.6152 112.597 47.9668C114.794 49.0215 116.508 49.8564 117.738 50.4717C118.969 50.999 119.848 51.3066 120.375 51.3945C121.869 51.9219 123.144 52.3613 124.198 52.7129C125.341 53.0645 126.264 53.5039 126.967 54.0312C128.109 54.5586 129.428 55.1738 130.922 55.877C132.504 56.5801 134.262 57.3711 136.195 58.25C139.359 59.832 142.304 61.6777 145.028 63.7871C147.841 65.8965 150.478 68.1816 152.938 70.6426C155.751 73.8066 157.86 76.9268 159.267 80.0029C160.673 82.9912 161.376 85.9795 161.376 88.9678C161.376 89.8467 161.288 91.1211 161.112 92.791C161.024 94.373 160.805 96.1748 160.453 98.1963C160.189 100.745 158.871 103.514 156.498 106.502C154.125 109.402 150.697 112.61 146.215 116.126C142.26 119.202 138.568 121.795 135.141 123.904C131.713 125.926 128.549 127.376 125.648 128.255C124.506 129.046 123.627 129.793 123.012 130.496C122.133 131.375 120.287 132.605 117.475 134.188C114.662 135.77 110.839 137.747 106.005 140.12C97.2158 144.427 90.9756 147.283 87.2842 148.689C83.5928 150.008 81.7471 151.458 81.7471 153.04ZM67.9043 89.4951C69.5742 88.2646 71.1562 87.0781 72.6504 85.9355C74.1445 84.7051 76.0781 84.0898 78.4512 84.0898C79.5059 84.0898 80.7803 85.2764 82.2744 87.6494C83.8564 89.9346 84.6475 91.6484 84.6475 92.791C84.6475 93.4062 84.4277 94.8125 83.9883 97.0098C83.5488 99.207 82.8457 102.195 81.8789 105.975C79.8574 114.5 78.7148 119.861 78.4512 122.059C78.1875 124.168 77.6162 127.508 76.7373 132.078C76.3857 133.221 76.0342 134.715 75.6826 136.561C75.6826 137.352 75.8145 137.923 76.0781 138.274C76.4297 138.626 76.8691 138.802 77.3965 138.802C94.8867 130.013 103.939 125.442 104.555 125.091C105.258 124.915 106.005 124.695 106.796 124.432C107.587 124.08 108.334 123.729 109.037 123.377L111.015 120.872C116.112 117.62 121.386 114.148 126.835 110.457C130.263 107.82 132.812 105.228 134.481 102.679C136.151 100.13 136.986 97.5811 136.986 95.0322C136.986 91.7803 135.097 88.5723 131.317 85.4082C127.538 82.2441 121.869 79.2119 114.311 76.3115C107.895 73.7627 102.05 71.917 96.7764 70.7744C91.5029 69.5439 86.7129 68.9287 82.4062 68.9287C76.7812 68.9287 72.5186 69.9395 69.6182 71.9609C66.8057 73.8945 65.3994 76.7949 65.3994 80.6621C65.3994 83.6504 65.6191 85.9355 66.0586 87.5176C66.498 89.0117 67.1133 89.6709 67.9043 89.4951ZM186.952 81.0576L184.843 72.4883C185.37 70.7305 185.897 68.9727 186.425 67.2148C186.952 65.3691 187.436 63.5674 187.875 61.8096C188.402 60.5791 189.281 59.6563 190.512 59.041C191.83 58.3379 193.544 57.9863 195.653 57.9863C196.444 57.9863 197.631 57.8105 199.213 57.459C200.883 57.1074 202.069 56.9316 202.772 56.9316C203.563 56.9316 204.618 57.5469 205.937 58.7773C207.255 60.0078 208.178 60.7109 208.705 60.8867C209.32 60.4473 210.067 59.7002 210.946 58.6455C211.913 57.5908 213.056 56.1846 214.374 54.4268C215.517 53.0205 216.615 51.8779 217.67 50.999C218.725 50.1201 219.867 49.5049 221.098 49.1533C222.504 49.8564 223.734 50.4277 224.789 50.8672C225.404 51.2188 225.8 51.6143 225.976 52.0537C226.239 52.4932 226.371 53.1084 226.371 53.8994C226.371 54.3389 226.151 55.3057 225.712 56.7998C225.272 58.2061 224.613 60.1396 223.734 62.6006C222.768 65.2373 222.021 67.4346 221.493 69.1924C220.966 70.9502 220.614 72.3125 220.438 73.2793C219.12 75.3008 218.065 77.1465 217.274 78.8164C216.571 80.3984 216.22 81.8926 216.22 83.2988C216.22 85.0566 216.747 87.6934 217.802 91.209C218.856 94.6367 220.395 98.9434 222.416 104.129C225.229 111.16 228.085 118.499 230.985 126.146C233.622 134.583 236.391 142.757 239.291 150.667C242.191 158.489 245.224 166.004 248.388 173.211C251.64 180.77 254.32 186.395 256.43 190.086C258.539 193.777 260.121 195.623 261.176 195.623C262.055 195.623 262.67 195.14 263.021 194.173C263.461 193.118 263.681 191.492 263.681 189.295C263.681 188.416 263.769 187.273 263.944 185.867C264.208 184.461 264.604 182.923 265.131 181.253C265.922 178.88 266.669 176.199 267.372 173.211C268.251 168.641 269.042 164.642 269.745 161.214C270.536 157.786 271.195 154.842 271.723 152.381C272.074 150.799 272.47 147.459 272.909 142.361C273.349 137.264 273.788 130.364 274.228 121.663C274.228 120.784 274.359 119.554 274.623 117.972C274.975 116.39 275.282 114.588 275.546 112.566C275.897 110.545 276.161 108.831 276.337 107.425C276.513 105.931 276.601 104.612 276.601 103.47C276.601 101.448 276.381 98.46 275.941 94.5049C275.502 90.4619 275.282 87.4297 275.282 85.4082C276.601 79.8711 277.831 74.4658 278.974 69.1924C279.94 64.6221 280.863 60.8428 281.742 57.8545C282.621 54.7783 283.368 52.4492 283.983 50.8672C285.39 47.7031 287.104 44.9785 289.125 42.6934C291.146 40.3203 293.388 38.3867 295.849 36.8926H296.903C297.782 36.8926 298.354 37.0684 298.617 37.4199C298.969 37.7715 299.145 38.3428 299.145 39.1338C298.705 40.9795 298.31 42.3857 297.958 43.3525C298.222 44.9346 298.485 46.6045 298.749 48.3623C298.485 50.5596 298.178 52.4053 297.826 53.8994C297.65 54.8662 297.475 56.3604 297.299 58.3818C297.123 60.3154 297.035 62.6885 297.035 65.501C297.035 66.5557 296.903 68.8408 296.64 72.3564C296.376 75.7842 295.893 80.3984 295.189 86.1992C294.662 94.4609 294.003 102.679 293.212 110.853C292.509 119.026 291.762 127.2 290.971 135.374C290.268 145.218 289.257 154.227 287.938 162.4C286.62 170.486 285.038 177.737 283.192 184.153C282.753 188.021 281.918 192.327 280.688 197.073C279.545 201.819 278.051 206.961 276.205 212.498L272.118 219.09C271.854 219.441 269.086 220.584 263.812 222.518C258.539 224.363 255.595 225.286 254.979 225.286C253.661 225.286 251.684 223.572 249.047 220.145C246.41 216.629 243.29 211.312 239.687 204.192C236.259 197.776 233.534 192.503 231.513 188.372C229.491 184.153 228.217 180.989 227.689 178.88C227.514 178.089 227.25 177.078 226.898 175.848C226.547 174.617 226.151 173.211 225.712 171.629C223.954 167.762 221.713 162.972 218.988 157.259C216.352 151.546 213.275 144.778 209.76 136.956C209.145 135.022 208.354 133.177 207.387 131.419C206.508 129.573 205.409 127.64 204.091 125.618L203.168 126.014C202.553 127.771 201.938 129.969 201.322 132.605C200.707 135.242 200.004 138.406 199.213 142.098C198.334 144.471 197.411 146.58 196.444 148.426C195.126 153.523 193.632 159.061 191.962 165.037C190.292 171.014 188.49 177.43 186.557 184.285C186.029 186.57 185.502 188.943 184.975 191.404C184.447 193.865 183.832 196.414 183.129 199.051L180.756 203.401C180.404 206.038 180.009 208.631 179.569 211.18C178.954 213.201 178.163 215.662 177.196 218.562C176.317 221.375 175.219 224.759 173.9 228.714C173.637 230.735 172.978 232.229 171.923 233.196C170.956 234.251 169.594 234.822 167.836 234.91C167.66 235.262 167.309 235.613 166.781 235.965C166.254 236.404 165.375 236.8 164.145 237.151C163.266 237.327 162.606 236.844 162.167 235.701C161.728 234.646 161.508 233.064 161.508 230.955C161.508 229.725 161.728 227.791 162.167 225.154C162.606 222.518 163.266 219.178 164.145 215.135C165.111 210.564 165.858 207.005 166.386 204.456C167.001 201.819 167.396 200.149 167.572 199.446C167.924 197.337 168.319 194.568 168.759 191.141C169.198 187.713 169.682 183.758 170.209 179.275C170.385 178.133 170.648 176.727 171 175.057C171.439 173.299 171.967 171.277 172.582 168.992C173.021 167.234 173.9 162.488 175.219 154.754C176.537 146.932 178.251 136.077 180.36 122.19C182.646 108.567 184.843 94.8564 186.952 81.0576Z" fill="#01be96"/>
</svg>